<?xml version="1.0" encoding="UTF-8" standalone="no"?>
<!DOCTYPE svg PUBLIC "-//W3C//DTD SVG 1.1//EN"
 "http://www.w3.org/Graphics/SVG/1.1/DTD/svg11.dtd">
<!-- Generated by graphviz version 2.40.1 (20161225.0304)
 -->
<!-- Title: G Pages: 1 -->
<svg width="1352pt" height="818pt"
 viewBox="0.00 0.00 1352.00 818.00" xmlns="http://www.w3.org/2000/svg" xmlns:xlink="http://www.w3.org/1999/xlink">
<g id="graph0" class="graph" transform="scale(1 1) rotate(0) translate(4 814)">
<title>G</title>
<polygon fill="#ffffff" stroke="transparent" points="-4,4 -4,-814 1348,-814 1348,4 -4,4"/>
<!-- node0000 -->
<g id="node1" class="node">
<title>node0000</title>
<ellipse fill="none" stroke="#000000" cx="1005" cy="-774" rx="36" ry="36"/>
<text text-anchor="middle" x="1005" y="-771.5" font-family="Times,serif" font-size="10.00" fill="#000000">Thing</text>
</g>
<!-- node0001 -->
<g id="node2" class="node">
<title>node0001</title>
<ellipse fill="none" stroke="#000000" cx="1005" cy="-651" rx="36" ry="36"/>
<text text-anchor="middle" x="1005" y="-654" font-family="Times,serif" font-size="10.00" fill="#000000">BFO_0000001</text>
<text text-anchor="middle" x="1005" y="-643" font-family="Times,serif" font-size="10.00" fill="#000000">entity</text>
</g>
<!-- node0001&#45;&gt;node0000 -->
<g id="edge1" class="edge">
<title>node0001&#45;&gt;node0000</title>
<path fill="none" stroke="#000000" d="M1005,-687.2388C1005,-699.7639 1005,-713.9809 1005,-727.229"/>
<polygon fill="#000000" stroke="#000000" points="1001.5001,-727.5952 1005,-737.5952 1008.5001,-727.5952 1001.5001,-727.5952"/>
<text text-anchor="middle" x="1014.5" y="-708.8" font-family="Times,serif" font-size="14.00" fill="#000000">is a</text>
</g>
<!-- node0002 -->
<g id="node3" class="node">
<title>node0002</title>
<ellipse fill="none" stroke="#000000" cx="915" cy="-528" rx="36" ry="36"/>
<text text-anchor="middle" x="915" y="-531" font-family="Times,serif" font-size="10.00" fill="#000000">BFO_0000002</text>
<text text-anchor="middle" x="915" y="-520" font-family="Times,serif" font-size="10.00" fill="#000000">continuant</text>
</g>
<!-- node0002&#45;&gt;node0001 -->
<g id="edge2" class="edge">
<title>node0002&#45;&gt;node0001</title>
<path fill="none" stroke="#000000" d="M936.3287,-557.1493C948.5686,-573.8771 964.0748,-595.0689 977.2541,-613.0805"/>
<polygon fill="#000000" stroke="#000000" points="974.7827,-615.6302 983.5125,-621.6337 980.4319,-611.4966 974.7827,-615.6302"/>
<text text-anchor="middle" x="975.5" y="-585.8" font-family="Times,serif" font-size="14.00" fill="#000000">is a</text>
</g>
<!-- node0003 -->
<g id="node4" class="node">
<title>node0003</title>
<ellipse fill="none" stroke="#000000" cx="1128" cy="-528" rx="36" ry="36"/>
<text text-anchor="middle" x="1128" y="-531" font-family="Times,serif" font-size="10.00" fill="#000000">BFO_0000003</text>
<text text-anchor="middle" x="1128" y="-520" font-family="Times,serif" font-size="10.00" fill="#000000">occurrent</text>
</g>
<!-- node0003&#45;&gt;node0001 -->
<g id="edge3" class="edge">
<title>node0003&#45;&gt;node0001</title>
<path fill="none" stroke="#000000" d="M1102.5143,-553.4857C1083.8387,-572.1613 1058.3219,-597.6781 1038.0748,-617.9252"/>
<polygon fill="#000000" stroke="#000000" points="1035.4724,-615.5778 1030.8762,-625.1238 1040.4222,-620.5276 1035.4724,-615.5778"/>
<text text-anchor="middle" x="1082.5" y="-585.8" font-family="Times,serif" font-size="14.00" fill="#000000">is a</text>
</g>
<!-- node0004 -->
<g id="node5" class="node">
<title>node0004</title>
<ellipse fill="none" stroke="#000000" cx="621" cy="-405" rx="36" ry="36"/>
<text text-anchor="middle" x="621" y="-413.5" font-family="Times,serif" font-size="10.00" fill="#000000">BFO_0000004</text>
<text text-anchor="middle" x="621" y="-402.5" font-family="Times,serif" font-size="10.00" fill="#000000">independent</text>
<text text-anchor="middle" x="621" y="-391.5" font-family="Times,serif" font-size="10.00" fill="#000000">continuant</text>
</g>
<!-- node0004&#45;&gt;node0002 -->
<g id="edge4" class="edge">
<title>node0004&#45;&gt;node0002</title>
<path fill="none" stroke="#000000" d="M654.4393,-418.9899C708.044,-441.4164 813.1609,-485.3938 872.1805,-510.0857"/>
<polygon fill="#000000" stroke="#000000" points="871.0159,-513.3924 881.5919,-514.0232 873.7176,-506.9348 871.0159,-513.3924"/>
<text text-anchor="middle" x="795.5" y="-462.8" font-family="Times,serif" font-size="14.00" fill="#000000">is a</text>
</g>
<!-- node0005 -->
<g id="node6" class="node">
<title>node0005</title>
<ellipse fill="none" stroke="#000000" cx="858" cy="-405" rx="36" ry="36"/>
<text text-anchor="middle" x="858" y="-419" font-family="Times,serif" font-size="10.00" fill="#000000">BFO_0000020</text>
<text text-anchor="middle" x="858" y="-408" font-family="Times,serif" font-size="10.00" fill="#000000">specifically</text>
<text text-anchor="middle" x="858" y="-397" font-family="Times,serif" font-size="10.00" fill="#000000">dependent</text>
<text text-anchor="middle" x="858" y="-386" font-family="Times,serif" font-size="10.00" fill="#000000">continuant</text>
</g>
<!-- node0005&#45;&gt;node0002 -->
<g id="edge5" class="edge">
<title>node0005&#45;&gt;node0002</title>
<path fill="none" stroke="#000000" d="M873.275,-437.9617C880.0476,-452.5763 888.1004,-469.9535 895.3167,-485.5256"/>
<polygon fill="#000000" stroke="#000000" points="892.3026,-487.3458 899.6829,-494.9473 898.6538,-484.4025 892.3026,-487.3458"/>
<text text-anchor="middle" x="899.5" y="-462.8" font-family="Times,serif" font-size="14.00" fill="#000000">is a</text>
</g>
<!-- node0006 -->
<g id="node7" class="node">
<title>node0006</title>
<ellipse fill="none" stroke="#000000" cx="948" cy="-405" rx="36" ry="36"/>
<text text-anchor="middle" x="948" y="-419" font-family="Times,serif" font-size="10.00" fill="#000000">BFO_0000031</text>
<text text-anchor="middle" x="948" y="-408" font-family="Times,serif" font-size="10.00" fill="#000000">generically</text>
<text text-anchor="middle" x="948" y="-397" font-family="Times,serif" font-size="10.00" fill="#000000">dependent</text>
<text text-anchor="middle" x="948" y="-386" font-family="Times,serif" font-size="10.00" fill="#000000">continuant</text>
</g>
<!-- node0006&#45;&gt;node0002 -->
<g id="edge6" class="edge">
<title>node0006&#45;&gt;node0002</title>
<path fill="none" stroke="#000000" d="M938.6318,-439.9179C935.0438,-453.2914 930.8986,-468.7416 927.0914,-482.9322"/>
<polygon fill="#000000" stroke="#000000" points="923.6025,-482.4294 924.3916,-492.9948 930.3634,-484.2434 923.6025,-482.4294"/>
<text text-anchor="middle" x="943.5" y="-462.8" font-family="Times,serif" font-size="14.00" fill="#000000">is a</text>
</g>
<!-- node0007 -->
<g id="node8" class="node">
<title>node0007</title>
<ellipse fill="none" stroke="#000000" cx="1038" cy="-405" rx="36" ry="36"/>
<text text-anchor="middle" x="1038" y="-413.5" font-family="Times,serif" font-size="10.00" fill="#000000">BFO_0000008</text>
<text text-anchor="middle" x="1038" y="-402.5" font-family="Times,serif" font-size="10.00" fill="#000000">temporal</text>
<text text-anchor="middle" x="1038" y="-391.5" font-family="Times,serif" font-size="10.00" fill="#000000">region</text>
</g>
<!-- node0007&#45;&gt;node0003 -->
<g id="edge7" class="edge">
<title>node0007&#45;&gt;node0003</title>
<path fill="none" stroke="#000000" d="M1059.3287,-434.1493C1071.5686,-450.8771 1087.0748,-472.0689 1100.2541,-490.0805"/>
<polygon fill="#000000" stroke="#000000" points="1097.7827,-492.6302 1106.5125,-498.6337 1103.4319,-488.4966 1097.7827,-492.6302"/>
<text text-anchor="middle" x="1097.5" y="-462.8" font-family="Times,serif" font-size="14.00" fill="#000000">is a</text>
</g>
<!-- node0008 -->
<g id="node9" class="node">
<title>node0008</title>
<ellipse fill="none" stroke="#000000" cx="1128" cy="-405" rx="36" ry="36"/>
<text text-anchor="middle" x="1128" y="-413.5" font-family="Times,serif" font-size="10.00" fill="#000000">BFO_0000011</text>
<text text-anchor="middle" x="1128" y="-402.5" font-family="Times,serif" font-size="10.00" fill="#000000">spatiotemporal</text>
<text text-anchor="middle" x="1128" y="-391.5" font-family="Times,serif" font-size="10.00" fill="#000000">region</text>
</g>
<!-- node0008&#45;&gt;node0003 -->
<g id="edge8" class="edge">
<title>node0008&#45;&gt;node0003</title>
<path fill="none" stroke="#000000" d="M1128,-441.2388C1128,-453.7639 1128,-467.9809 1128,-481.229"/>
<polygon fill="#000000" stroke="#000000" points="1124.5001,-481.5952 1128,-491.5952 1131.5001,-481.5952 1124.5001,-481.5952"/>
<text text-anchor="middle" x="1137.5" y="-462.8" font-family="Times,serif" font-size="14.00" fill="#000000">is a</text>
</g>
<!-- node0009 -->
<g id="node10" class="node">
<title>node0009</title>
<ellipse fill="none" stroke="#000000" cx="1218" cy="-405" rx="36" ry="36"/>
<text text-anchor="middle" x="1218" y="-408" font-family="Times,serif" font-size="10.00" fill="#000000">BFO_0000015</text>
<text text-anchor="middle" x="1218" y="-397" font-family="Times,serif" font-size="10.00" fill="#000000">process</text>
</g>
<!-- node0009&#45;&gt;node0003 -->
<g id="edge9" class="edge">
<title>node0009&#45;&gt;node0003</title>
<path fill="none" stroke="#000000" d="M1196.6713,-434.1493C1184.4314,-450.8771 1168.9252,-472.0689 1155.7459,-490.0805"/>
<polygon fill="#000000" stroke="#000000" points="1152.5681,-488.4966 1149.4875,-498.6337 1158.2173,-492.6302 1152.5681,-488.4966"/>
<text text-anchor="middle" x="1187.5" y="-462.8" font-family="Times,serif" font-size="14.00" fill="#000000">is a</text>
</g>
<!-- node0010 -->
<g id="node11" class="node">
<title>node0010</title>
<ellipse fill="none" stroke="#000000" cx="1308" cy="-405" rx="36" ry="36"/>
<text text-anchor="middle" x="1308" y="-413.5" font-family="Times,serif" font-size="10.00" fill="#000000">BFO_0000035</text>
<text text-anchor="middle" x="1308" y="-402.5" font-family="Times,serif" font-size="10.00" fill="#000000">process</text>
<text text-anchor="middle" x="1308" y="-391.5" font-family="Times,serif" font-size="10.00" fill="#000000">boundary</text>
</g>
<!-- node0010&#45;&gt;node0003 -->
<g id="edge10" class="edge">
<title>node0010&#45;&gt;node0003</title>
<path fill="none" stroke="#000000" d="M1279.7739,-428.3015C1274.2867,-432.6248 1268.5228,-437.0271 1263,-441 1231.7844,-463.4552 1195.0228,-486.965 1167.7497,-503.8763"/>
<polygon fill="#000000" stroke="#000000" points="1165.5572,-501.1166 1158.8861,-509.3474 1169.234,-507.0732 1165.5572,-501.1166"/>
<text text-anchor="middle" x="1243.5" y="-462.8" font-family="Times,serif" font-size="14.00" fill="#000000">is a</text>
</g>
<!-- node0011 -->
<g id="node12" class="node">
<title>node0011</title>
<ellipse fill="none" stroke="#000000" cx="384" cy="-282" rx="36" ry="36"/>
<text text-anchor="middle" x="384" y="-290.5" font-family="Times,serif" font-size="10.00" fill="#000000">BFO_0000141</text>
<text text-anchor="middle" x="384" y="-279.5" font-family="Times,serif" font-size="10.00" fill="#000000">immaterial</text>
<text text-anchor="middle" x="384" y="-268.5" font-family="Times,serif" font-size="10.00" fill="#000000">entity</text>
</g>
<!-- node0011&#45;&gt;node0004 -->
<g id="edge11" class="edge">
<title>node0011&#45;&gt;node0004</title>
<path fill="none" stroke="#000000" d="M415.9629,-298.5883C458.3689,-320.5965 533.2842,-359.4766 579.8661,-383.652"/>
<polygon fill="#000000" stroke="#000000" points="578.2985,-386.7817 588.7866,-388.2817 581.523,-380.5686 578.2985,-386.7817"/>
<text text-anchor="middle" x="526.5" y="-339.8" font-family="Times,serif" font-size="14.00" fill="#000000">is a</text>
</g>
<!-- node0012 -->
<g id="node13" class="node">
<title>node0012</title>
<ellipse fill="none" stroke="#000000" cx="621" cy="-282" rx="36" ry="36"/>
<text text-anchor="middle" x="621" y="-290.5" font-family="Times,serif" font-size="10.00" fill="#000000">BFO_0000040</text>
<text text-anchor="middle" x="621" y="-279.5" font-family="Times,serif" font-size="10.00" fill="#000000">material</text>
<text text-anchor="middle" x="621" y="-268.5" font-family="Times,serif" font-size="10.00" fill="#000000">entity</text>
</g>
<!-- node0012&#45;&gt;node0004 -->
<g id="edge12" class="edge">
<title>node0012&#45;&gt;node0004</title>
<path fill="none" stroke="#000000" d="M621,-318.2388C621,-330.7639 621,-344.9809 621,-358.229"/>
<polygon fill="#000000" stroke="#000000" points="617.5001,-358.5952 621,-368.5952 624.5001,-358.5952 617.5001,-358.5952"/>
<text text-anchor="middle" x="630.5" y="-339.8" font-family="Times,serif" font-size="14.00" fill="#000000">is a</text>
</g>
<!-- node0013 -->
<g id="node14" class="node">
<title>node0013</title>
<ellipse fill="none" stroke="#000000" cx="858" cy="-282" rx="36" ry="36"/>
<text text-anchor="middle" x="858" y="-290.5" font-family="Times,serif" font-size="10.00" fill="#000000">BFO_0000017</text>
<text text-anchor="middle" x="858" y="-279.5" font-family="Times,serif" font-size="10.00" fill="#000000">realizable</text>
<text text-anchor="middle" x="858" y="-268.5" font-family="Times,serif" font-size="10.00" fill="#000000">entity</text>
</g>
<!-- node0013&#45;&gt;node0005 -->
<g id="edge13" class="edge">
<title>node0013&#45;&gt;node0005</title>
<path fill="none" stroke="#000000" d="M858,-318.2388C858,-330.7639 858,-344.9809 858,-358.229"/>
<polygon fill="#000000" stroke="#000000" points="854.5001,-358.5952 858,-368.5952 861.5001,-358.5952 854.5001,-358.5952"/>
<text text-anchor="middle" x="867.5" y="-339.8" font-family="Times,serif" font-size="14.00" fill="#000000">is a</text>
</g>
<!-- node0014 -->
<g id="node15" class="node">
<title>node0014</title>
<ellipse fill="none" stroke="#000000" cx="948" cy="-282" rx="36" ry="36"/>
<text text-anchor="middle" x="948" y="-285" font-family="Times,serif" font-size="10.00" fill="#000000">BFO_0000019</text>
<text text-anchor="middle" x="948" y="-274" font-family="Times,serif" font-size="10.00" fill="#000000">quality</text>
</g>
<!-- node0014&#45;&gt;node0005 -->
<g id="edge14" class="edge">
<title>node0014&#45;&gt;node0005</title>
<path fill="none" stroke="#000000" d="M926.6713,-311.1493C914.4314,-327.8771 898.9252,-349.0689 885.7459,-367.0805"/>
<polygon fill="#000000" stroke="#000000" points="882.5681,-365.4966 879.4875,-375.6337 888.2173,-369.6302 882.5681,-365.4966"/>
<text text-anchor="middle" x="918.5" y="-339.8" font-family="Times,serif" font-size="14.00" fill="#000000">is a</text>
</g>
<!-- node0015 -->
<g id="node16" class="node">
<title>node0015</title>
<ellipse fill="none" stroke="#000000" cx="1038" cy="-282" rx="36" ry="36"/>
<text text-anchor="middle" x="1038" y="-296" font-family="Times,serif" font-size="10.00" fill="#000000">BFO_0000038</text>
<text text-anchor="middle" x="1038" y="-285" font-family="Times,serif" font-size="10.00" fill="#000000">one&#45;dimensional</text>
<text text-anchor="middle" x="1038" y="-274" font-family="Times,serif" font-size="10.00" fill="#000000">temporal</text>
<text text-anchor="middle" x="1038" y="-263" font-family="Times,serif" font-size="10.00" fill="#000000">region</text>
</g>
<!-- node0015&#45;&gt;node0007 -->
<g id="edge15" class="edge">
<title>node0015&#45;&gt;node0007</title>
<path fill="none" stroke="#000000" d="M1038,-318.2388C1038,-330.7639 1038,-344.9809 1038,-358.229"/>
<polygon fill="#000000" stroke="#000000" points="1034.5001,-358.5952 1038,-368.5952 1041.5001,-358.5952 1034.5001,-358.5952"/>
<text text-anchor="middle" x="1047.5" y="-339.8" font-family="Times,serif" font-size="14.00" fill="#000000">is a</text>
</g>
<!-- node0016 -->
<g id="node17" class="node">
<title>node0016</title>
<ellipse fill="none" stroke="#000000" cx="1128" cy="-282" rx="36" ry="36"/>
<text text-anchor="middle" x="1128" y="-296" font-family="Times,serif" font-size="10.00" fill="#000000">BFO_0000148</text>
<text text-anchor="middle" x="1128" y="-285" font-family="Times,serif" font-size="10.00" fill="#000000">zero&#45;dimensional</text>
<text text-anchor="middle" x="1128" y="-274" font-family="Times,serif" font-size="10.00" fill="#000000">temporal</text>
<text text-anchor="middle" x="1128" y="-263" font-family="Times,serif" font-size="10.00" fill="#000000">region</text>
</g>
<!-- node0016&#45;&gt;node0007 -->
<g id="edge16" class="edge">
<title>node0016&#45;&gt;node0007</title>
<path fill="none" stroke="#000000" d="M1106.6713,-311.1493C1094.4314,-327.8771 1078.9252,-349.0689 1065.7459,-367.0805"/>
<polygon fill="#000000" stroke="#000000" points="1062.5681,-365.4966 1059.4875,-375.6337 1068.2173,-369.6302 1062.5681,-365.4966"/>
<text text-anchor="middle" x="1097.5" y="-339.8" font-family="Times,serif" font-size="14.00" fill="#000000">is a</text>
</g>
<!-- node0017 -->
<g id="node18" class="node">
<title>node0017</title>
<ellipse fill="none" stroke="#000000" cx="1218" cy="-282" rx="36" ry="36"/>
<text text-anchor="middle" x="1218" y="-290.5" font-family="Times,serif" font-size="10.00" fill="#000000">BFO_0000144</text>
<text text-anchor="middle" x="1218" y="-279.5" font-family="Times,serif" font-size="10.00" fill="#000000">process</text>
<text text-anchor="middle" x="1218" y="-268.5" font-family="Times,serif" font-size="10.00" fill="#000000">profile</text>
</g>
<!-- node0017&#45;&gt;node0009 -->
<g id="edge17" class="edge">
<title>node0017&#45;&gt;node0009</title>
<path fill="none" stroke="#000000" d="M1218,-318.2388C1218,-330.7639 1218,-344.9809 1218,-358.229"/>
<polygon fill="#000000" stroke="#000000" points="1214.5001,-358.5952 1218,-368.5952 1221.5001,-358.5952 1214.5001,-358.5952"/>
<text text-anchor="middle" x="1227.5" y="-339.8" font-family="Times,serif" font-size="14.00" fill="#000000">is a</text>
</g>
<!-- node0018 -->
<g id="node19" class="node">
<title>node0018</title>
<ellipse fill="none" stroke="#000000" cx="1308" cy="-282" rx="36" ry="36"/>
<text text-anchor="middle" x="1308" y="-285" font-family="Times,serif" font-size="10.00" fill="#000000">BFO_0000182</text>
<text text-anchor="middle" x="1308" y="-274" font-family="Times,serif" font-size="10.00" fill="#000000">history</text>
</g>
<!-- node0018&#45;&gt;node0009 -->
<g id="edge18" class="edge">
<title>node0018&#45;&gt;node0009</title>
<path fill="none" stroke="#000000" d="M1286.6713,-311.1493C1274.4314,-327.8771 1258.9252,-349.0689 1245.7459,-367.0805"/>
<polygon fill="#000000" stroke="#000000" points="1242.5681,-365.4966 1239.4875,-375.6337 1248.2173,-369.6302 1242.5681,-365.4966"/>
<text text-anchor="middle" x="1277.5" y="-339.8" font-family="Times,serif" font-size="14.00" fill="#000000">is a</text>
</g>
<!-- node0019 -->
<g id="node20" class="node">
<title>node0019</title>
<ellipse fill="none" stroke="#000000" cx="216" cy="-159" rx="36" ry="36"/>
<text text-anchor="middle" x="216" y="-167.5" font-family="Times,serif" font-size="10.00" fill="#000000">BFO_0000006</text>
<text text-anchor="middle" x="216" y="-156.5" font-family="Times,serif" font-size="10.00" fill="#000000">spatial</text>
<text text-anchor="middle" x="216" y="-145.5" font-family="Times,serif" font-size="10.00" fill="#000000">region</text>
</g>
<!-- node0019&#45;&gt;node0011 -->
<g id="edge19" class="edge">
<title>node0019&#45;&gt;node0011</title>
<path fill="none" stroke="#000000" d="M245.2634,-180.425C273.3628,-200.9978 315.9364,-232.1677 346.5081,-254.5506"/>
<polygon fill="#000000" stroke="#000000" points="344.6544,-257.5312 354.7906,-260.6146 348.7896,-251.8831 344.6544,-257.5312"/>
<text text-anchor="middle" x="320.5" y="-216.8" font-family="Times,serif" font-size="14.00" fill="#000000">is a</text>
</g>
<!-- node0020 -->
<g id="node21" class="node">
<title>node0020</title>
<ellipse fill="none" stroke="#000000" cx="351" cy="-159" rx="36" ry="36"/>
<text text-anchor="middle" x="351" y="-162" font-family="Times,serif" font-size="10.00" fill="#000000">BFO_0000029</text>
<text text-anchor="middle" x="351" y="-151" font-family="Times,serif" font-size="10.00" fill="#000000">site</text>
</g>
<!-- node0020&#45;&gt;node0011 -->
<g id="edge20" class="edge">
<title>node0020&#45;&gt;node0011</title>
<path fill="none" stroke="#000000" d="M360.3682,-193.9179C363.9562,-207.2914 368.1014,-222.7416 371.9086,-236.9322"/>
<polygon fill="#000000" stroke="#000000" points="368.6366,-238.2434 374.6084,-246.9948 375.3975,-236.4294 368.6366,-238.2434"/>
<text text-anchor="middle" x="379.5" y="-216.8" font-family="Times,serif" font-size="14.00" fill="#000000">is a</text>
</g>
<!-- node0021 -->
<g id="node22" class="node">
<title>node0021</title>
<ellipse fill="none" stroke="#000000" cx="441" cy="-159" rx="36" ry="36"/>
<text text-anchor="middle" x="441" y="-173" font-family="Times,serif" font-size="10.00" fill="#000000">BFO_0000140</text>
<text text-anchor="middle" x="441" y="-162" font-family="Times,serif" font-size="10.00" fill="#000000">continuant</text>
<text text-anchor="middle" x="441" y="-151" font-family="Times,serif" font-size="10.00" fill="#000000">fiat</text>
<text text-anchor="middle" x="441" y="-140" font-family="Times,serif" font-size="10.00" fill="#000000">boundary</text>
</g>
<!-- node0021&#45;&gt;node0011 -->
<g id="edge21" class="edge">
<title>node0021&#45;&gt;node0011</title>
<path fill="none" stroke="#000000" d="M425.725,-191.9617C418.9524,-206.5763 410.8996,-223.9535 403.6833,-239.5256"/>
<polygon fill="#000000" stroke="#000000" points="400.3462,-238.4025 399.3171,-248.9473 406.6974,-241.3458 400.3462,-238.4025"/>
<text text-anchor="middle" x="425.5" y="-216.8" font-family="Times,serif" font-size="14.00" fill="#000000">is a</text>
</g>
<!-- node0022 -->
<g id="node23" class="node">
<title>node0022</title>
<ellipse fill="none" stroke="#000000" cx="531" cy="-159" rx="36" ry="36"/>
<text text-anchor="middle" x="531" y="-173" font-family="Times,serif" font-size="10.00" fill="#000000">BFO_0000024</text>
<text text-anchor="middle" x="531" y="-162" font-family="Times,serif" font-size="10.00" fill="#000000">fiat</text>
<text text-anchor="middle" x="531" y="-151" font-family="Times,serif" font-size="10.00" fill="#000000">object</text>
<text text-anchor="middle" x="531" y="-140" font-family="Times,serif" font-size="10.00" fill="#000000">part</text>
</g>
<!-- node0022&#45;&gt;node0012 -->
<g id="edge22" class="edge">
<title>node0022&#45;&gt;node0012</title>
<path fill="none" stroke="#000000" d="M552.3287,-188.1493C564.5686,-204.8771 580.0748,-226.0689 593.2541,-244.0805"/>
<polygon fill="#000000" stroke="#000000" points="590.7827,-246.6302 599.5125,-252.6337 596.4319,-242.4966 590.7827,-246.6302"/>
<text text-anchor="middle" x="591.5" y="-216.8" font-family="Times,serif" font-size="14.00" fill="#000000">is a</text>
</g>
<!-- node0023 -->
<g id="node24" class="node">
<title>node0023</title>
<ellipse fill="none" stroke="#000000" cx="621" cy="-159" rx="36" ry="36"/>
<text text-anchor="middle" x="621" y="-167.5" font-family="Times,serif" font-size="10.00" fill="#000000">BFO_0000027</text>
<text text-anchor="middle" x="621" y="-156.5" font-family="Times,serif" font-size="10.00" fill="#000000">object</text>
<text text-anchor="middle" x="621" y="-145.5" font-family="Times,serif" font-size="10.00" fill="#000000">aggregate</text>
</g>
<!-- node0023&#45;&gt;node0012 -->
<g id="edge23" class="edge">
<title>node0023&#45;&gt;node0012</title>
<path fill="none" stroke="#000000" d="M621,-195.2388C621,-207.7639 621,-221.9809 621,-235.229"/>
<polygon fill="#000000" stroke="#000000" points="617.5001,-235.5952 621,-245.5952 624.5001,-235.5952 617.5001,-235.5952"/>
<text text-anchor="middle" x="630.5" y="-216.8" font-family="Times,serif" font-size="14.00" fill="#000000">is a</text>
</g>
<!-- node0024 -->
<g id="node25" class="node">
<title>node0024</title>
<ellipse fill="none" stroke="#000000" cx="711" cy="-159" rx="36" ry="36"/>
<text text-anchor="middle" x="711" y="-162" font-family="Times,serif" font-size="10.00" fill="#000000">BFO_0000030</text>
<text text-anchor="middle" x="711" y="-151" font-family="Times,serif" font-size="10.00" fill="#000000">object</text>
</g>
<!-- node0024&#45;&gt;node0012 -->
<g id="edge24" class="edge">
<title>node0024&#45;&gt;node0012</title>
<path fill="none" stroke="#000000" d="M689.6713,-188.1493C677.4314,-204.8771 661.9252,-226.0689 648.7459,-244.0805"/>
<polygon fill="#000000" stroke="#000000" points="645.5681,-242.4966 642.4875,-252.6337 651.2173,-246.6302 645.5681,-242.4966"/>
<text text-anchor="middle" x="681.5" y="-216.8" font-family="Times,serif" font-size="14.00" fill="#000000">is a</text>
</g>
<!-- node0025 -->
<g id="node26" class="node">
<title>node0025</title>
<ellipse fill="none" stroke="#000000" cx="801" cy="-159" rx="36" ry="36"/>
<text text-anchor="middle" x="801" y="-162" font-family="Times,serif" font-size="10.00" fill="#000000">BFO_0000016</text>
<text text-anchor="middle" x="801" y="-151" font-family="Times,serif" font-size="10.00" fill="#000000">disposition</text>
</g>
<!-- node0025&#45;&gt;node0013 -->
<g id="edge25" class="edge">
<title>node0025&#45;&gt;node0013</title>
<path fill="none" stroke="#000000" d="M816.275,-191.9617C823.0476,-206.5763 831.1004,-223.9535 838.3167,-239.5256"/>
<polygon fill="#000000" stroke="#000000" points="835.3026,-241.3458 842.6829,-248.9473 841.6538,-238.4025 835.3026,-241.3458"/>
<text text-anchor="middle" x="842.5" y="-216.8" font-family="Times,serif" font-size="14.00" fill="#000000">is a</text>
</g>
<!-- node0026 -->
<g id="node27" class="node">
<title>node0026</title>
<ellipse fill="none" stroke="#000000" cx="891" cy="-159" rx="36" ry="36"/>
<text text-anchor="middle" x="891" y="-162" font-family="Times,serif" font-size="10.00" fill="#000000">BFO_0000023</text>
<text text-anchor="middle" x="891" y="-151" font-family="Times,serif" font-size="10.00" fill="#000000">role</text>
</g>
<!-- node0026&#45;&gt;node0013 -->
<g id="edge26" class="edge">
<title>node0026&#45;&gt;node0013</title>
<path fill="none" stroke="#000000" d="M881.6318,-193.9179C878.0438,-207.2914 873.8986,-222.7416 870.0914,-236.9322"/>
<polygon fill="#000000" stroke="#000000" points="866.6025,-236.4294 867.3916,-246.9948 873.3634,-238.2434 866.6025,-236.4294"/>
<text text-anchor="middle" x="886.5" y="-216.8" font-family="Times,serif" font-size="14.00" fill="#000000">is a</text>
</g>
<!-- node0027 -->
<g id="node28" class="node">
<title>node0027</title>
<ellipse fill="none" stroke="#000000" cx="981" cy="-159" rx="36" ry="36"/>
<text text-anchor="middle" x="981" y="-167.5" font-family="Times,serif" font-size="10.00" fill="#000000">BFO_0000145</text>
<text text-anchor="middle" x="981" y="-156.5" font-family="Times,serif" font-size="10.00" fill="#000000">relational</text>
<text text-anchor="middle" x="981" y="-145.5" font-family="Times,serif" font-size="10.00" fill="#000000">quality</text>
</g>
<!-- node0027&#45;&gt;node0014 -->
<g id="edge27" class="edge">
<title>node0027&#45;&gt;node0014</title>
<path fill="none" stroke="#000000" d="M971.6318,-193.9179C968.0438,-207.2914 963.8986,-222.7416 960.0914,-236.9322"/>
<polygon fill="#000000" stroke="#000000" points="956.6025,-236.4294 957.3916,-246.9948 963.3634,-238.2434 956.6025,-236.4294"/>
<text text-anchor="middle" x="976.5" y="-216.8" font-family="Times,serif" font-size="14.00" fill="#000000">is a</text>
</g>
<!-- node0028 -->
<g id="node29" class="node">
<title>node0028</title>
<ellipse fill="none" stroke="#000000" cx="36" cy="-36" rx="36" ry="36"/>
<text text-anchor="middle" x="36" y="-50" font-family="Times,serif" font-size="10.00" fill="#000000">BFO_0000009</text>
<text text-anchor="middle" x="36" y="-39" font-family="Times,serif" font-size="10.00" fill="#000000">two&#45;dimensional</text>
<text text-anchor="middle" x="36" y="-28" font-family="Times,serif" font-size="10.00" fill="#000000">spatial</text>
<text text-anchor="middle" x="36" y="-17" font-family="Times,serif" font-size="10.00" fill="#000000">region</text>
</g>
<!-- node0028&#45;&gt;node0019 -->
<g id="edge28" class="edge">
<title>node0028&#45;&gt;node0019</title>
<path fill="none" stroke="#000000" d="M64.2261,-59.3015C69.7133,-63.6248 75.4772,-68.0271 81,-72 112.2156,-94.4552 148.9772,-117.965 176.2503,-134.8763"/>
<polygon fill="#000000" stroke="#000000" points="174.766,-138.0732 185.1139,-140.3474 178.4428,-132.1166 174.766,-138.0732"/>
<text text-anchor="middle" x="138.5" y="-93.8" font-family="Times,serif" font-size="14.00" fill="#000000">is a</text>
</g>
<!-- node0029 -->
<g id="node30" class="node">
<title>node0029</title>
<ellipse fill="none" stroke="#000000" cx="126" cy="-36" rx="36" ry="36"/>
<text text-anchor="middle" x="126" y="-50" font-family="Times,serif" font-size="10.00" fill="#000000">BFO_0000028</text>
<text text-anchor="middle" x="126" y="-39" font-family="Times,serif" font-size="10.00" fill="#000000">three&#45;dimensional</text>
<text text-anchor="middle" x="126" y="-28" font-family="Times,serif" font-size="10.00" fill="#000000">spatial</text>
<text text-anchor="middle" x="126" y="-17" font-family="Times,serif" font-size="10.00" fill="#000000">region</text>
</g>
<!-- node0029&#45;&gt;node0019 -->
<g id="edge29" class="edge">
<title>node0029&#45;&gt;node0019</title>
<path fill="none" stroke="#000000" d="M147.3287,-65.1493C159.5686,-81.8771 175.0748,-103.0689 188.2541,-121.0805"/>
<polygon fill="#000000" stroke="#000000" points="185.7827,-123.6302 194.5125,-129.6337 191.4319,-119.4966 185.7827,-123.6302"/>
<text text-anchor="middle" x="186.5" y="-93.8" font-family="Times,serif" font-size="14.00" fill="#000000">is a</text>
</g>
<!-- node0030 -->
<g id="node31" class="node">
<title>node0030</title>
<ellipse fill="none" stroke="#000000" cx="216" cy="-36" rx="36" ry="36"/>
<text text-anchor="middle" x="216" y="-50" font-family="Times,serif" font-size="10.00" fill="#000000">BFO_0000018</text>
<text text-anchor="middle" x="216" y="-39" font-family="Times,serif" font-size="10.00" fill="#000000">zero&#45;dimensional</text>
<text text-anchor="middle" x="216" y="-28" font-family="Times,serif" font-size="10.00" fill="#000000">spatial</text>
<text text-anchor="middle" x="216" y="-17" font-family="Times,serif" font-size="10.00" fill="#000000">region</text>
</g>
<!-- node0030&#45;&gt;node0019 -->
<g id="edge30" class="edge">
<title>node0030&#45;&gt;node0019</title>
<path fill="none" stroke="#000000" d="M216,-72.2388C216,-84.7639 216,-98.9809 216,-112.229"/>
<polygon fill="#000000" stroke="#000000" points="212.5001,-112.5952 216,-122.5952 219.5001,-112.5952 212.5001,-112.5952"/>
<text text-anchor="middle" x="225.5" y="-93.8" font-family="Times,serif" font-size="14.00" fill="#000000">is a</text>
</g>
<!-- node0031 -->
<g id="node32" class="node">
<title>node0031</title>
<ellipse fill="none" stroke="#000000" cx="306" cy="-36" rx="36" ry="36"/>
<text text-anchor="middle" x="306" y="-50" font-family="Times,serif" font-size="10.00" fill="#000000">BFO_0000026</text>
<text text-anchor="middle" x="306" y="-39" font-family="Times,serif" font-size="10.00" fill="#000000">one&#45;dimensional</text>
<text text-anchor="middle" x="306" y="-28" font-family="Times,serif" font-size="10.00" fill="#000000">spatial</text>
<text text-anchor="middle" x="306" y="-17" font-family="Times,serif" font-size="10.00" fill="#000000">region</text>
</g>
<!-- node0031&#45;&gt;node0019 -->
<g id="edge31" class="edge">
<title>node0031&#45;&gt;node0019</title>
<path fill="none" stroke="#000000" d="M284.6713,-65.1493C272.4314,-81.8771 256.9252,-103.0689 243.7459,-121.0805"/>
<polygon fill="#000000" stroke="#000000" points="240.5681,-119.4966 237.4875,-129.6337 246.2173,-123.6302 240.5681,-119.4966"/>
<text text-anchor="middle" x="276.5" y="-93.8" font-family="Times,serif" font-size="14.00" fill="#000000">is a</text>
</g>
<!-- node0032 -->
<g id="node33" class="node">
<title>node0032</title>
<ellipse fill="none" stroke="#000000" cx="396" cy="-36" rx="36" ry="36"/>
<text text-anchor="middle" x="396" y="-55.5" font-family="Times,serif" font-size="10.00" fill="#000000">BFO_0000142</text>
<text text-anchor="middle" x="396" y="-44.5" font-family="Times,serif" font-size="10.00" fill="#000000">one&#45;dimensional</text>
<text text-anchor="middle" x="396" y="-33.5" font-family="Times,serif" font-size="10.00" fill="#000000">continuant</text>
<text text-anchor="middle" x="396" y="-22.5" font-family="Times,serif" font-size="10.00" fill="#000000">fiat</text>
<text text-anchor="middle" x="396" y="-11.5" font-family="Times,serif" font-size="10.00" fill="#000000">boundary</text>
</g>
<!-- node0032&#45;&gt;node0021 -->
<g id="edge32" class="edge">
<title>node0032&#45;&gt;node0021</title>
<path fill="none" stroke="#000000" d="M408.4156,-69.9359C413.58,-84.0519 419.6381,-100.6108 425.1205,-115.5961"/>
<polygon fill="#000000" stroke="#000000" points="421.9021,-116.9862 428.6249,-125.1749 428.476,-114.5811 421.9021,-116.9862"/>
<text text-anchor="middle" x="431.5" y="-93.8" font-family="Times,serif" font-size="14.00" fill="#000000">is a</text>
</g>
<!-- node0033 -->
<g id="node34" class="node">
<title>node0033</title>
<ellipse fill="none" stroke="#000000" cx="486" cy="-36" rx="36" ry="36"/>
<text text-anchor="middle" x="486" y="-55.5" font-family="Times,serif" font-size="10.00" fill="#000000">BFO_0000146</text>
<text text-anchor="middle" x="486" y="-44.5" font-family="Times,serif" font-size="10.00" fill="#000000">two&#45;dimensional</text>
<text text-anchor="middle" x="486" y="-33.5" font-family="Times,serif" font-size="10.00" fill="#000000">continuant</text>
<text text-anchor="middle" x="486" y="-22.5" font-family="Times,serif" font-size="10.00" fill="#000000">fiat</text>
<text text-anchor="middle" x="486" y="-11.5" font-family="Times,serif" font-size="10.00" fill="#000000">boundary</text>
</g>
<!-- node0033&#45;&gt;node0021 -->
<g id="edge33" class="edge">
<title>node0033&#45;&gt;node0021</title>
<path fill="none" stroke="#000000" d="M473.5844,-69.9359C468.42,-84.0519 462.3619,-100.6108 456.8795,-115.5961"/>
<polygon fill="#000000" stroke="#000000" points="453.524,-114.5811 453.3751,-125.1749 460.0979,-116.9862 453.524,-114.5811"/>
<text text-anchor="middle" x="476.5" y="-93.8" font-family="Times,serif" font-size="14.00" fill="#000000">is a</text>
</g>
<!-- node0034 -->
<g id="node35" class="node">
<title>node0034</title>
<ellipse fill="none" stroke="#000000" cx="576" cy="-36" rx="36" ry="36"/>
<text text-anchor="middle" x="576" y="-55.5" font-family="Times,serif" font-size="10.00" fill="#000000">BFO_0000147</text>
<text text-anchor="middle" x="576" y="-44.5" font-family="Times,serif" font-size="10.00" fill="#000000">zero&#45;dimensional</text>
<text text-anchor="middle" x="576" y="-33.5" font-family="Times,serif" font-size="10.00" fill="#000000">continuant</text>
<text text-anchor="middle" x="576" y="-22.5" font-family="Times,serif" font-size="10.00" fill="#000000">fiat</text>
<text text-anchor="middle" x="576" y="-11.5" font-family="Times,serif" font-size="10.00" fill="#000000">boundary</text>
</g>
<!-- node0034&#45;&gt;node0021 -->
<g id="edge34" class="edge">
<title>node0034&#45;&gt;node0021</title>
<path fill="none" stroke="#000000" d="M549.3283,-60.3008C528.0647,-79.6744 498.1425,-106.9368 475.1323,-127.9017"/>
<polygon fill="#000000" stroke="#000000" points="472.651,-125.4275 467.6162,-134.7496 477.3655,-130.6019 472.651,-125.4275"/>
<text text-anchor="middle" x="526.5" y="-93.8" font-family="Times,serif" font-size="14.00" fill="#000000">is a</text>
</g>
<!-- node0035 -->
<g id="node36" class="node">
<title>node0035</title>
<ellipse fill="none" stroke="#000000" cx="801" cy="-36" rx="36" ry="36"/>
<text text-anchor="middle" x="801" y="-39" font-family="Times,serif" font-size="10.00" fill="#000000">BFO_0000034</text>
<text text-anchor="middle" x="801" y="-28" font-family="Times,serif" font-size="10.00" fill="#000000">function</text>
</g>
<!-- node0035&#45;&gt;node0025 -->
<g id="edge35" class="edge">
<title>node0035&#45;&gt;node0025</title>
<path fill="none" stroke="#000000" d="M801,-72.2388C801,-84.7639 801,-98.9809 801,-112.229"/>
<polygon fill="#000000" stroke="#000000" points="797.5001,-112.5952 801,-122.5952 804.5001,-112.5952 797.5001,-112.5952"/>
<text text-anchor="middle" x="810.5" y="-93.8" font-family="Times,serif" font-size="14.00" fill="#000000">is a</text>
</g>
</g>
</svg>
