<?xml version="1.0" encoding="UTF-8" standalone="no"?>
<!DOCTYPE svg PUBLIC "-//W3C//DTD SVG 1.1//EN"
 "http://www.w3.org/Graphics/SVG/1.1/DTD/svg11.dtd">
<!-- Generated by graphviz version 2.40.1 (20161225.0304)
 -->
<!-- Title: G Pages: 1 -->
<svg width="168pt" height="274pt"
 viewBox="0.00 0.00 168.20 274.40" xmlns="http://www.w3.org/2000/svg" xmlns:xlink="http://www.w3.org/1999/xlink">
<g id="graph0" class="graph" transform="scale(1 1) rotate(0) translate(4 270.4)">
<title>G</title>
<polygon fill="#ffffff" stroke="transparent" points="-4,4 -4,-270.4 164.2,-270.4 164.2,4 -4,4"/>
<!-- node0000 -->
<g id="node1" class="node">
<title>node0000</title>
<ellipse fill="#454545" stroke="#000000" cx="122.6" cy="-262.8" rx="3.6" ry="3.6"/>
</g>
<!-- node0001 -->
<g id="node2" class="node">
<title>node0001</title>
<ellipse fill="#454545" stroke="#000000" cx="122.6" cy="-219.6" rx="3.6" ry="3.6"/>
</g>
<!-- node0001&#45;&gt;node0000 -->
<g id="edge1" class="edge">
<title>node0001&#45;&gt;node0000</title>
<path fill="none" stroke="#959595" d="M122.6,-223.2832C122.6,-231.4449 122.6,-250.9731 122.6,-259.1261"/>
</g>
<!-- node0002 -->
<g id="node3" class="node">
<title>node0002</title>
<ellipse fill="#454545" stroke="#000000" cx="106.6" cy="-176.4" rx="3.6" ry="3.6"/>
</g>
<!-- node0002&#45;&gt;node0001 -->
<g id="edge2" class="edge">
<title>node0002&#45;&gt;node0001</title>
<path fill="none" stroke="#959595" d="M107.8555,-179.7898C110.8023,-187.7461 118.144,-207.5689 121.2151,-215.8606"/>
</g>
<!-- node0003 -->
<g id="node4" class="node">
<title>node0003</title>
<ellipse fill="#454545" stroke="#000000" cx="134.6" cy="-176.4" rx="3.6" ry="3.6"/>
</g>
<!-- node0003&#45;&gt;node0001 -->
<g id="edge3" class="edge">
<title>node0003&#45;&gt;node0001</title>
<path fill="none" stroke="#959595" d="M133.5769,-180.0832C131.3097,-188.2449 125.8853,-207.7731 123.6205,-215.9261"/>
</g>
<!-- node0004 -->
<g id="node5" class="node">
<title>node0004</title>
<ellipse fill="#454545" stroke="#000000" cx="74.6" cy="-133.2" rx="3.6" ry="3.6"/>
</g>
<!-- node0004&#45;&gt;node0002 -->
<g id="edge4" class="edge">
<title>node0004&#45;&gt;node0002</title>
<path fill="none" stroke="#959595" d="M76.9014,-136.3068C82.7483,-144.2002 98.1356,-164.9731 104.1455,-173.0864"/>
</g>
<!-- node0005 -->
<g id="node6" class="node">
<title>node0005</title>
<ellipse fill="#454545" stroke="#000000" cx="101.6" cy="-133.2" rx="3.6" ry="3.6"/>
</g>
<!-- node0005&#45;&gt;node0002 -->
<g id="edge5" class="edge">
<title>node0005&#45;&gt;node0002</title>
<path fill="none" stroke="#959595" d="M102.0263,-136.8832C102.9709,-145.0449 105.2311,-164.5731 106.1748,-172.7261"/>
</g>
<!-- node0006 -->
<g id="node7" class="node">
<title>node0006</title>
<ellipse fill="#454545" stroke="#000000" cx="112.6" cy="-133.2" rx="3.6" ry="3.6"/>
</g>
<!-- node0006&#45;&gt;node0002 -->
<g id="edge6" class="edge">
<title>node0006&#45;&gt;node0002</title>
<path fill="none" stroke="#959595" d="M112.0884,-136.8832C110.9549,-145.0449 108.2426,-164.5731 107.1103,-172.7261"/>
</g>
<!-- node0007 -->
<g id="node8" class="node">
<title>node0007</title>
<ellipse fill="#454545" stroke="#000000" cx="123.6" cy="-133.2" rx="3.6" ry="3.6"/>
</g>
<!-- node0007&#45;&gt;node0003 -->
<g id="edge7" class="edge">
<title>node0007&#45;&gt;node0003</title>
<path fill="none" stroke="#959595" d="M124.5379,-136.8832C126.6161,-145.0449 131.5885,-164.5731 133.6645,-172.7261"/>
</g>
<!-- node0008 -->
<g id="node9" class="node">
<title>node0008</title>
<ellipse fill="#454545" stroke="#000000" cx="134.6" cy="-133.2" rx="3.6" ry="3.6"/>
</g>
<!-- node0008&#45;&gt;node0003 -->
<g id="edge8" class="edge">
<title>node0008&#45;&gt;node0003</title>
<path fill="none" stroke="#959595" d="M134.6,-136.8832C134.6,-145.0449 134.6,-164.5731 134.6,-172.7261"/>
</g>
<!-- node0009 -->
<g id="node10" class="node">
<title>node0009</title>
<ellipse fill="#454545" stroke="#000000" cx="145.6" cy="-133.2" rx="3.6" ry="3.6"/>
</g>
<!-- node0009&#45;&gt;node0003 -->
<g id="edge9" class="edge">
<title>node0009&#45;&gt;node0003</title>
<path fill="none" stroke="#959595" d="M144.6621,-136.8832C142.5839,-145.0449 137.6115,-164.5731 135.5355,-172.7261"/>
</g>
<!-- node0010 -->
<g id="node11" class="node">
<title>node0010</title>
<ellipse fill="#454545" stroke="#000000" cx="156.6" cy="-133.2" rx="3.6" ry="3.6"/>
</g>
<!-- node0010&#45;&gt;node0003 -->
<g id="edge10" class="edge">
<title>node0010&#45;&gt;node0003</title>
<path fill="none" stroke="#959595" d="M154.8737,-136.5898C150.7409,-144.7052 140.3207,-165.1665 136.2581,-173.1441"/>
</g>
<!-- node0011 -->
<g id="node12" class="node">
<title>node0011</title>
<ellipse fill="#454545" stroke="#000000" cx="47.6" cy="-90" rx="3.6" ry="3.6"/>
</g>
<!-- node0011&#45;&gt;node0004 -->
<g id="edge11" class="edge">
<title>node0011&#45;&gt;node0004</title>
<path fill="none" stroke="#959595" d="M49.5418,-93.1068C54.4751,-101.0002 67.4582,-121.7731 72.529,-129.8864"/>
</g>
<!-- node0012 -->
<g id="node13" class="node">
<title>node0012</title>
<ellipse fill="#454545" stroke="#000000" cx="74.6" cy="-90" rx="3.6" ry="3.6"/>
</g>
<!-- node0012&#45;&gt;node0004 -->
<g id="edge12" class="edge">
<title>node0012&#45;&gt;node0004</title>
<path fill="none" stroke="#959595" d="M74.6,-93.6832C74.6,-101.8449 74.6,-121.3731 74.6,-129.5261"/>
</g>
<!-- node0013 -->
<g id="node14" class="node">
<title>node0013</title>
<ellipse fill="#454545" stroke="#000000" cx="101.6" cy="-90" rx="3.6" ry="3.6"/>
</g>
<!-- node0013&#45;&gt;node0005 -->
<g id="edge13" class="edge">
<title>node0013&#45;&gt;node0005</title>
<path fill="none" stroke="#959595" d="M101.6,-93.6832C101.6,-101.8449 101.6,-121.3731 101.6,-129.5261"/>
</g>
<!-- node0014 -->
<g id="node15" class="node">
<title>node0014</title>
<ellipse fill="#454545" stroke="#000000" cx="112.6" cy="-90" rx="3.6" ry="3.6"/>
</g>
<!-- node0014&#45;&gt;node0005 -->
<g id="edge14" class="edge">
<title>node0014&#45;&gt;node0005</title>
<path fill="none" stroke="#959595" d="M111.6621,-93.6832C109.5839,-101.8449 104.6115,-121.3731 102.5355,-129.5261"/>
</g>
<!-- node0015 -->
<g id="node16" class="node">
<title>node0015</title>
<ellipse fill="#454545" stroke="#000000" cx="123.6" cy="-90" rx="3.6" ry="3.6"/>
</g>
<!-- node0015&#45;&gt;node0007 -->
<g id="edge15" class="edge">
<title>node0015&#45;&gt;node0007</title>
<path fill="none" stroke="#959595" d="M123.6,-93.6832C123.6,-101.8449 123.6,-121.3731 123.6,-129.5261"/>
</g>
<!-- node0016 -->
<g id="node17" class="node">
<title>node0016</title>
<ellipse fill="#454545" stroke="#000000" cx="134.6" cy="-90" rx="3.6" ry="3.6"/>
</g>
<!-- node0016&#45;&gt;node0007 -->
<g id="edge16" class="edge">
<title>node0016&#45;&gt;node0007</title>
<path fill="none" stroke="#959595" d="M133.6621,-93.6832C131.5839,-101.8449 126.6115,-121.3731 124.5355,-129.5261"/>
</g>
<!-- node0017 -->
<g id="node18" class="node">
<title>node0017</title>
<ellipse fill="#454545" stroke="#000000" cx="145.6" cy="-90" rx="3.6" ry="3.6"/>
</g>
<!-- node0017&#45;&gt;node0009 -->
<g id="edge17" class="edge">
<title>node0017&#45;&gt;node0009</title>
<path fill="none" stroke="#959595" d="M145.6,-93.6832C145.6,-101.8449 145.6,-121.3731 145.6,-129.5261"/>
</g>
<!-- node0018 -->
<g id="node19" class="node">
<title>node0018</title>
<ellipse fill="#454545" stroke="#000000" cx="156.6" cy="-90" rx="3.6" ry="3.6"/>
</g>
<!-- node0018&#45;&gt;node0009 -->
<g id="edge18" class="edge">
<title>node0018&#45;&gt;node0009</title>
<path fill="none" stroke="#959595" d="M155.6621,-93.6832C153.5839,-101.8449 148.6115,-121.3731 146.5355,-129.5261"/>
</g>
<!-- node0019 -->
<g id="node20" class="node">
<title>node0019</title>
<ellipse fill="#454545" stroke="#000000" cx="25.6" cy="-46.8" rx="3.6" ry="3.6"/>
</g>
<!-- node0019&#45;&gt;node0011 -->
<g id="edge19" class="edge">
<title>node0019&#45;&gt;node0011</title>
<path fill="none" stroke="#959595" d="M27.3263,-50.1898C31.4591,-58.3052 41.8793,-78.7665 45.9419,-86.7441"/>
</g>
<!-- node0020 -->
<g id="node21" class="node">
<title>node0020</title>
<ellipse fill="#454545" stroke="#000000" cx="41.6" cy="-46.8" rx="3.6" ry="3.6"/>
</g>
<!-- node0020&#45;&gt;node0011 -->
<g id="edge20" class="edge">
<title>node0020&#45;&gt;node0011</title>
<path fill="none" stroke="#959595" d="M42.1116,-50.4832C43.2451,-58.6449 45.9574,-78.1731 47.0897,-86.3261"/>
</g>
<!-- node0021 -->
<g id="node22" class="node">
<title>node0021</title>
<ellipse fill="#454545" stroke="#000000" cx="52.6" cy="-46.8" rx="3.6" ry="3.6"/>
</g>
<!-- node0021&#45;&gt;node0011 -->
<g id="edge21" class="edge">
<title>node0021&#45;&gt;node0011</title>
<path fill="none" stroke="#959595" d="M52.1737,-50.4832C51.2291,-58.6449 48.9689,-78.1731 48.0252,-86.3261"/>
</g>
<!-- node0022 -->
<g id="node23" class="node">
<title>node0022</title>
<ellipse fill="#454545" stroke="#000000" cx="63.6" cy="-46.8" rx="3.6" ry="3.6"/>
</g>
<!-- node0022&#45;&gt;node0012 -->
<g id="edge22" class="edge">
<title>node0022&#45;&gt;node0012</title>
<path fill="none" stroke="#959595" d="M64.5379,-50.4832C66.6161,-58.6449 71.5885,-78.1731 73.6645,-86.3261"/>
</g>
<!-- node0023 -->
<g id="node24" class="node">
<title>node0023</title>
<ellipse fill="#454545" stroke="#000000" cx="74.6" cy="-46.8" rx="3.6" ry="3.6"/>
</g>
<!-- node0023&#45;&gt;node0012 -->
<g id="edge23" class="edge">
<title>node0023&#45;&gt;node0012</title>
<path fill="none" stroke="#959595" d="M74.6,-50.4832C74.6,-58.6449 74.6,-78.1731 74.6,-86.3261"/>
</g>
<!-- node0024 -->
<g id="node25" class="node">
<title>node0024</title>
<ellipse fill="#454545" stroke="#000000" cx="85.6" cy="-46.8" rx="3.6" ry="3.6"/>
</g>
<!-- node0024&#45;&gt;node0012 -->
<g id="edge24" class="edge">
<title>node0024&#45;&gt;node0012</title>
<path fill="none" stroke="#959595" d="M84.6621,-50.4832C82.5839,-58.6449 77.6115,-78.1731 75.5355,-86.3261"/>
</g>
<!-- node0025 -->
<g id="node26" class="node">
<title>node0025</title>
<ellipse fill="#454545" stroke="#000000" cx="96.6" cy="-46.8" rx="3.6" ry="3.6"/>
</g>
<!-- node0025&#45;&gt;node0013 -->
<g id="edge25" class="edge">
<title>node0025&#45;&gt;node0013</title>
<path fill="none" stroke="#959595" d="M97.0263,-50.4832C97.9709,-58.6449 100.2311,-78.1731 101.1748,-86.3261"/>
</g>
<!-- node0026 -->
<g id="node27" class="node">
<title>node0026</title>
<ellipse fill="#454545" stroke="#000000" cx="107.6" cy="-46.8" rx="3.6" ry="3.6"/>
</g>
<!-- node0026&#45;&gt;node0013 -->
<g id="edge26" class="edge">
<title>node0026&#45;&gt;node0013</title>
<path fill="none" stroke="#959595" d="M107.0884,-50.4832C105.9549,-58.6449 103.2426,-78.1731 102.1103,-86.3261"/>
</g>
<!-- node0027 -->
<g id="node28" class="node">
<title>node0027</title>
<ellipse fill="#454545" stroke="#000000" cx="118.6" cy="-46.8" rx="3.6" ry="3.6"/>
</g>
<!-- node0027&#45;&gt;node0014 -->
<g id="edge27" class="edge">
<title>node0027&#45;&gt;node0014</title>
<path fill="none" stroke="#959595" d="M118.0884,-50.4832C116.9549,-58.6449 114.2426,-78.1731 113.1103,-86.3261"/>
</g>
<!-- node0028 -->
<g id="node29" class="node">
<title>node0028</title>
<ellipse fill="#454545" stroke="#000000" cx="3.6" cy="-3.6" rx="3.6" ry="3.6"/>
</g>
<!-- node0028&#45;&gt;node0019 -->
<g id="edge28" class="edge">
<title>node0028&#45;&gt;node0019</title>
<path fill="none" stroke="#959595" d="M5.3263,-6.9898C9.4591,-15.1052 19.8793,-35.5665 23.9419,-43.5441"/>
</g>
<!-- node0029 -->
<g id="node30" class="node">
<title>node0029</title>
<ellipse fill="#454545" stroke="#000000" cx="14.6" cy="-3.6" rx="3.6" ry="3.6"/>
</g>
<!-- node0029&#45;&gt;node0019 -->
<g id="edge29" class="edge">
<title>node0029&#45;&gt;node0019</title>
<path fill="none" stroke="#959595" d="M15.5379,-7.2832C17.6161,-15.4449 22.5885,-34.9731 24.6645,-43.1261"/>
</g>
<!-- node0030 -->
<g id="node31" class="node">
<title>node0030</title>
<ellipse fill="#454545" stroke="#000000" cx="25.6" cy="-3.6" rx="3.6" ry="3.6"/>
</g>
<!-- node0030&#45;&gt;node0019 -->
<g id="edge30" class="edge">
<title>node0030&#45;&gt;node0019</title>
<path fill="none" stroke="#959595" d="M25.6,-7.2832C25.6,-15.4449 25.6,-34.9731 25.6,-43.1261"/>
</g>
<!-- node0031 -->
<g id="node32" class="node">
<title>node0031</title>
<ellipse fill="#454545" stroke="#000000" cx="36.6" cy="-3.6" rx="3.6" ry="3.6"/>
</g>
<!-- node0031&#45;&gt;node0019 -->
<g id="edge31" class="edge">
<title>node0031&#45;&gt;node0019</title>
<path fill="none" stroke="#959595" d="M35.6621,-7.2832C33.5839,-15.4449 28.6115,-34.9731 26.5355,-43.1261"/>
</g>
<!-- node0032 -->
<g id="node33" class="node">
<title>node0032</title>
<ellipse fill="#454545" stroke="#000000" cx="47.6" cy="-3.6" rx="3.6" ry="3.6"/>
</g>
<!-- node0032&#45;&gt;node0021 -->
<g id="edge32" class="edge">
<title>node0032&#45;&gt;node0021</title>
<path fill="none" stroke="#959595" d="M48.0263,-7.2832C48.9709,-15.4449 51.2311,-34.9731 52.1748,-43.1261"/>
</g>
<!-- node0033 -->
<g id="node34" class="node">
<title>node0033</title>
<ellipse fill="#454545" stroke="#000000" cx="58.6" cy="-3.6" rx="3.6" ry="3.6"/>
</g>
<!-- node0033&#45;&gt;node0021 -->
<g id="edge33" class="edge">
<title>node0033&#45;&gt;node0021</title>
<path fill="none" stroke="#959595" d="M58.0884,-7.2832C56.9549,-15.4449 54.2426,-34.9731 53.1103,-43.1261"/>
</g>
<!-- node0034 -->
<g id="node35" class="node">
<title>node0034</title>
<ellipse fill="#454545" stroke="#000000" cx="69.6" cy="-3.6" rx="3.6" ry="3.6"/>
</g>
<!-- node0034&#45;&gt;node0021 -->
<g id="edge34" class="edge">
<title>node0034&#45;&gt;node0021</title>
<path fill="none" stroke="#959595" d="M68.266,-6.9898C65.1351,-14.9461 57.3345,-34.7689 54.0715,-43.0606"/>
</g>
<!-- node0035 -->
<g id="node36" class="node">
<title>node0035</title>
<ellipse fill="#454545" stroke="#000000" cx="96.6" cy="-3.6" rx="3.6" ry="3.6"/>
</g>
<!-- node0035&#45;&gt;node0025 -->
<g id="edge35" class="edge">
<title>node0035&#45;&gt;node0025</title>
<path fill="none" stroke="#959595" d="M96.6,-7.2832C96.6,-15.4449 96.6,-34.9731 96.6,-43.1261"/>
</g>
</g>
</svg>
