<?xml version="1.0" encoding="UTF-8" standalone="no"?>
<!DOCTYPE svg PUBLIC "-//W3C//DTD SVG 1.1//EN"
 "http://www.w3.org/Graphics/SVG/1.1/DTD/svg11.dtd">
<!-- Generated by graphviz version 2.40.1 (20161225.0304)
 -->
<!-- Title: G Pages: 1 -->
<svg width="620pt" height="449pt"
 viewBox="0.00 0.00 620.00 449.00" xmlns="http://www.w3.org/2000/svg" xmlns:xlink="http://www.w3.org/1999/xlink">
<g id="graph0" class="graph" transform="scale(1 1) rotate(0) translate(4 445)">
<title>G</title>
<polygon fill="#ffffff" stroke="transparent" points="-4,4 -4,-445 616,-445 616,4 -4,4"/>
<!-- node0000 -->
<g id="node1" class="node">
<title>node0000</title>
<ellipse fill="none" stroke="#000000" cx="374" cy="-405" rx="36" ry="36"/>
<text text-anchor="middle" x="374" y="-408" font-family="Times,serif" font-size="10.00" fill="#000000"><a href="http://www.wikidata.org/entity/Q125977">Q125977</a></text>
<text text-anchor="middle" x="374" y="-397" font-family="Times,serif" font-size="10.00" fill="#000000">vector space</text>
</g>
<!-- node0001 -->
<g id="node2" class="node">
<title>node0001</title>
<ellipse fill="none" stroke="#000000" cx="329" cy="-282" rx="36" ry="36"/>
<text text-anchor="middle" x="329" y="-290.5" font-family="Times,serif" font-size="10.00" fill="#000000"><a href="http://www.wikidata.org/entity/Q472971">Q472971</a></text>
<text text-anchor="middle" x="329" y="-279.5" font-family="Times,serif" font-size="10.00" fill="#000000">space</text>
<text text-anchor="middle" x="329" y="-268.5" font-family="Times,serif" font-size="10.00" fill="#000000">(mathematics)</text>
</g>
<!-- node0000&#45;&gt;node0001 -->
<g id="edge1" class="edge">
<title>node0000&#45;&gt;node0001</title>
<path fill="none" stroke="#000000" d="M361.5844,-371.0641C356.42,-356.9481 350.3619,-340.3892 344.8795,-325.4039"/>
<polygon fill="#000000" stroke="#000000" points="348.0979,-324.0138 341.3751,-315.8251 341.524,-326.4189 348.0979,-324.0138"/>
<text text-anchor="middle" x="363.5" y="-339.8" font-family="Times,serif" font-size="14.00" fill="#000000">is a</text>
</g>
<!-- node0002 -->
<g id="node3" class="node">
<title>node0002</title>
<ellipse fill="none" stroke="#000000" cx="441" cy="-282" rx="36" ry="36"/>
<text text-anchor="middle" x="441" y="-285" font-family="Times,serif" font-size="10.00" fill="#000000"><a href="http://www.wikidata.org/entity/Q1292333">Q1292333</a></text>
<text text-anchor="middle" x="441" y="-274" font-family="Times,serif" font-size="10.00" fill="#000000">free module</text>
</g>
<!-- node0000&#45;&gt;node0002 -->
<g id="edge2" class="edge">
<title>node0000&#45;&gt;node0002</title>
<path fill="none" stroke="#000000" d="M391.2542,-373.3244C399.6291,-357.9496 409.7913,-339.2935 418.7423,-322.8611"/>
<polygon fill="#000000" stroke="#000000" points="421.8615,-324.4517 423.5714,-313.9957 415.7143,-321.1032 421.8615,-324.4517"/>
<text text-anchor="middle" x="420.5" y="-339.8" font-family="Times,serif" font-size="14.00" fill="#000000">is a</text>
</g>
<!-- node0003 -->
<g id="node4" class="node">
<title>node0003</title>
<ellipse fill="none" stroke="#000000" cx="216" cy="-159" rx="36" ry="36"/>
<text text-anchor="middle" x="216" y="-162" font-family="Times,serif" font-size="10.00" fill="#000000"><a href="http://www.wikidata.org/entity/Q36161">Q36161</a></text>
<text text-anchor="middle" x="216" y="-151" font-family="Times,serif" font-size="10.00" fill="#000000">set</text>
</g>
<!-- node0001&#45;&gt;node0003 -->
<g id="edge3" class="edge">
<title>node0001&#45;&gt;node0003</title>
<path fill="none" stroke="#000000" d="M304.4807,-255.3108C287.748,-237.0973 265.4353,-212.8101 247.4031,-193.1821"/>
<polygon fill="#000000" stroke="#000000" points="249.8143,-190.6333 240.4715,-185.6371 244.6594,-195.3691 249.8143,-190.6333"/>
<text text-anchor="middle" x="289.5" y="-216.8" font-family="Times,serif" font-size="14.00" fill="#000000">is a</text>
</g>
<!-- node0004 -->
<g id="node5" class="node">
<title>node0004</title>
<ellipse fill="none" stroke="#000000" cx="441" cy="-159" rx="36" ry="36"/>
<text text-anchor="middle" x="441" y="-167.5" font-family="Times,serif" font-size="10.00" fill="#000000"><a href="http://www.wikidata.org/entity/Q942423">Q942423</a></text>
<text text-anchor="middle" x="441" y="-156.5" font-family="Times,serif" font-size="10.00" fill="#000000">projective</text>
<text text-anchor="middle" x="441" y="-145.5" font-family="Times,serif" font-size="10.00" fill="#000000">module</text>
</g>
<!-- node0002&#45;&gt;node0004 -->
<g id="edge4" class="edge">
<title>node0002&#45;&gt;node0004</title>
<path fill="none" stroke="#000000" d="M441,-245.7612C441,-233.2361 441,-219.0191 441,-205.771"/>
<polygon fill="#000000" stroke="#000000" points="444.5001,-205.4048 441,-195.4048 437.5001,-205.4048 444.5001,-205.4048"/>
<text text-anchor="middle" x="450.5" y="-216.8" font-family="Times,serif" font-size="14.00" fill="#000000">is a</text>
</g>
<!-- node0005 -->
<g id="node6" class="node">
<title>node0005</title>
<ellipse fill="none" stroke="#000000" cx="553" cy="-159" rx="36" ry="36"/>
<text text-anchor="middle" x="553" y="-162" font-family="Times,serif" font-size="10.00" fill="#000000"><a href="http://www.wikidata.org/entity/Q5500272">Q5500272</a></text>
<text text-anchor="middle" x="553" y="-151" font-family="Times,serif" font-size="10.00" fill="#000000">free object</text>
</g>
<!-- node0002&#45;&gt;node0005 -->
<g id="edge5" class="edge">
<title>node0002&#45;&gt;node0005</title>
<path fill="none" stroke="#000000" d="M465.3023,-255.3108C481.887,-237.0973 504.0022,-212.8101 521.8748,-193.1821"/>
<polygon fill="#000000" stroke="#000000" points="524.6002,-195.3875 528.7451,-185.6371 519.4245,-190.6746 524.6002,-195.3875"/>
<text text-anchor="middle" x="512.5" y="-216.8" font-family="Times,serif" font-size="14.00" fill="#000000">is a</text>
</g>
<!-- node0006 -->
<g id="node7" class="node">
<title>node0006</title>
<ellipse fill="none" stroke="#000000" cx="36" cy="-36" rx="36" ry="36"/>
<text text-anchor="middle" x="36" y="-39" font-family="Times,serif" font-size="10.00" fill="#000000"><a href="http://www.wikidata.org/entity/Q217594">Q217594</a></text>
<text text-anchor="middle" x="36" y="-28" font-family="Times,serif" font-size="10.00" fill="#000000">class</text>
</g>
<!-- node0003&#45;&gt;node0006 -->
<g id="edge6" class="edge">
<title>node0003&#45;&gt;node0006</title>
<path fill="none" stroke="#000000" d="M185.1139,-140.3474C157.3594,-123.2937 115.7444,-96.9936 81,-72 78.1523,-69.9515 75.2405,-67.7888 72.3356,-65.5816"/>
<polygon fill="#000000" stroke="#000000" points="74.2755,-62.6571 64.2261,-59.3015 69.9895,-68.1916 74.2755,-62.6571"/>
<text text-anchor="middle" x="138.5" y="-93.8" font-family="Times,serif" font-size="14.00" fill="#000000">is a</text>
</g>
<!-- node0007 -->
<g id="node8" class="node">
<title>node0007</title>
<ellipse fill="none" stroke="#000000" cx="126" cy="-36" rx="36" ry="36"/>
<text text-anchor="middle" x="126" y="-44.5" font-family="Times,serif" font-size="10.00" fill="#000000"><a href="http://www.wikidata.org/entity/Q246672">Q246672</a></text>
<text text-anchor="middle" x="126" y="-33.5" font-family="Times,serif" font-size="10.00" fill="#000000">mathematical</text>
<text text-anchor="middle" x="126" y="-22.5" font-family="Times,serif" font-size="10.00" fill="#000000">object</text>
</g>
<!-- node0003&#45;&gt;node0007 -->
<g id="edge7" class="edge">
<title>node0003&#45;&gt;node0007</title>
<path fill="none" stroke="#000000" d="M194.6713,-129.8507C182.4314,-113.1229 166.9252,-91.9311 153.7459,-73.9195"/>
<polygon fill="#000000" stroke="#000000" points="156.2173,-71.3698 147.4875,-65.3663 150.5681,-75.5034 156.2173,-71.3698"/>
<text text-anchor="middle" x="186.5" y="-93.8" font-family="Times,serif" font-size="14.00" fill="#000000">is a</text>
</g>
<!-- node0008 -->
<g id="node9" class="node">
<title>node0008</title>
<ellipse fill="none" stroke="#000000" cx="216" cy="-36" rx="36" ry="36"/>
<text text-anchor="middle" x="216" y="-39" font-family="Times,serif" font-size="10.00" fill="#000000"><a href="http://www.wikidata.org/entity/Q864377">Q864377</a></text>
<text text-anchor="middle" x="216" y="-28" font-family="Times,serif" font-size="10.00" fill="#000000">multiset</text>
</g>
<!-- node0003&#45;&gt;node0008 -->
<g id="edge8" class="edge">
<title>node0003&#45;&gt;node0008</title>
<path fill="none" stroke="#000000" d="M216,-122.7612C216,-110.2361 216,-96.0191 216,-82.771"/>
<polygon fill="#000000" stroke="#000000" points="219.5001,-82.4048 216,-72.4048 212.5001,-82.4048 219.5001,-82.4048"/>
<text text-anchor="middle" x="225.5" y="-93.8" font-family="Times,serif" font-size="14.00" fill="#000000">is a</text>
</g>
<!-- node0009 -->
<g id="node10" class="node">
<title>node0009</title>
<ellipse fill="none" stroke="#000000" cx="306" cy="-36" rx="36" ry="36"/>
<text text-anchor="middle" x="306" y="-39" font-family="Times,serif" font-size="10.00" fill="#000000"><a href="http://www.wikidata.org/entity/Q5469988">Q5469988</a></text>
<text text-anchor="middle" x="306" y="-28" font-family="Times,serif" font-size="10.00" fill="#000000">formalization</text>
</g>
<!-- node0003&#45;&gt;node0009 -->
<g id="edge9" class="edge">
<title>node0003&#45;&gt;node0009</title>
<path fill="none" stroke="#000000" d="M237.3287,-129.8507C249.5686,-113.1229 265.0748,-91.9311 278.2541,-73.9195"/>
<polygon fill="#000000" stroke="#000000" points="281.4319,-75.5034 284.5125,-65.3663 275.7827,-71.3698 281.4319,-75.5034"/>
<text text-anchor="middle" x="276.5" y="-93.8" font-family="Times,serif" font-size="14.00" fill="#000000">is a</text>
</g>
<!-- node0010 -->
<g id="node11" class="node">
<title>node0010</title>
<ellipse fill="none" stroke="#000000" cx="396" cy="-36" rx="36" ry="36"/>
<text text-anchor="middle" x="396" y="-39" font-family="Times,serif" font-size="10.00" fill="#000000"><a href="http://www.wikidata.org/entity/Q1426191">Q1426191</a></text>
<text text-anchor="middle" x="396" y="-28" font-family="Times,serif" font-size="10.00" fill="#000000">flat module</text>
</g>
<!-- node0004&#45;&gt;node0010 -->
<g id="edge10" class="edge">
<title>node0004&#45;&gt;node0010</title>
<path fill="none" stroke="#000000" d="M428.5844,-125.0641C423.42,-110.9481 417.3619,-94.3892 411.8795,-79.4039"/>
<polygon fill="#000000" stroke="#000000" points="415.0979,-78.0138 408.3751,-69.8251 408.524,-80.4189 415.0979,-78.0138"/>
<text text-anchor="middle" x="430.5" y="-93.8" font-family="Times,serif" font-size="14.00" fill="#000000">is a</text>
</g>
<!-- node0011 -->
<g id="node12" class="node">
<title>node0011</title>
<ellipse fill="none" stroke="#000000" cx="486" cy="-36" rx="36" ry="36"/>
<text text-anchor="middle" x="486" y="-44.5" font-family="Times,serif" font-size="10.00" fill="#000000"><a href="http://www.wikidata.org/entity/Q2112502">Q2112502</a></text>
<text text-anchor="middle" x="486" y="-33.5" font-family="Times,serif" font-size="10.00" fill="#000000">projective</text>
<text text-anchor="middle" x="486" y="-22.5" font-family="Times,serif" font-size="10.00" fill="#000000">object</text>
</g>
<!-- node0004&#45;&gt;node0011 -->
<g id="edge11" class="edge">
<title>node0004&#45;&gt;node0011</title>
<path fill="none" stroke="#000000" d="M453.4156,-125.0641C458.58,-110.9481 464.6381,-94.3892 470.1205,-79.4039"/>
<polygon fill="#000000" stroke="#000000" points="473.476,-80.4189 473.6249,-69.8251 466.9021,-78.0138 473.476,-80.4189"/>
<text text-anchor="middle" x="475.5" y="-93.8" font-family="Times,serif" font-size="14.00" fill="#000000">is a</text>
</g>
<!-- node0012 -->
<g id="node13" class="node">
<title>node0012</title>
<ellipse fill="none" stroke="#000000" cx="576" cy="-36" rx="36" ry="36"/>
<text text-anchor="middle" x="576" y="-44.5" font-family="Times,serif" font-size="10.00" fill="#000000"><a href="http://www.wikidata.org/entity/Q205464">Q205464</a></text>
<text text-anchor="middle" x="576" y="-33.5" font-family="Times,serif" font-size="10.00" fill="#000000">algebraic</text>
<text text-anchor="middle" x="576" y="-22.5" font-family="Times,serif" font-size="10.00" fill="#000000">structure</text>
</g>
<!-- node0005&#45;&gt;node0012 -->
<g id="edge12" class="edge">
<title>node0005&#45;&gt;node0012</title>
<path fill="none" stroke="#000000" d="M559.6526,-123.4233C562.108,-110.2919 564.9244,-95.2306 567.5198,-81.3504"/>
<polygon fill="#000000" stroke="#000000" points="570.9646,-81.9697 569.3624,-71.4967 564.0839,-80.683 570.9646,-81.9697"/>
<text text-anchor="middle" x="574.5" y="-93.8" font-family="Times,serif" font-size="14.00" fill="#000000">is a</text>
</g>
</g>
</svg>
